<svg width="40" height="40" viewBox="0 0 40 40" fill="none" xmlns="http://www.w3.org/2000/svg">
<rect width="40" height="40" rx="20" fill="#D9D9D9"/>
<path d="M11.0001 25.0001C11 24.9355 11 24.8689 11 24.8002V15.2002C11 14.0801 11 13.5196 11.218 13.0918C11.4097 12.7155 11.7155 12.4097 12.0918 12.218C12.5196 12 13.0801 12 14.2002 12H25.8002C26.9203 12 27.4801 12 27.9079 12.218C28.2842 12.4097 28.5905 12.7155 28.7822 13.0918C29 13.5192 29 14.079 29 15.1969V24.8031C29 25.2881 29 25.6679 28.9822 25.9774M11.0001 25.0001C11.0008 25.9884 11.0134 26.5058 11.218 26.9074C11.4097 27.2837 11.7155 27.5905 12.0918 27.7822C12.5192 28 13.079 28 14.1969 28H25.8036C26.9215 28 27.4805 28 27.9079 27.7822C28.2842 27.5905 28.5905 27.2837 28.7822 26.9074C28.9055 26.6654 28.959 26.3813 28.9822 25.9774M11.0001 25.0001L15.768 19.4375L15.7694 19.436C16.1923 18.9426 16.4041 18.6955 16.6553 18.6064C16.8759 18.5282 17.1169 18.53 17.3364 18.6113C17.5866 18.704 17.7951 18.9539 18.2119 19.4541L20.8831 22.6595C21.269 23.1226 21.463 23.3554 21.6986 23.4489C21.9065 23.5313 22.1357 23.5406 22.3501 23.4773C22.5942 23.4053 22.8091 23.1904 23.2388 22.7607L23.7358 22.2637C24.1733 21.8262 24.3921 21.6076 24.6397 21.5361C24.8571 21.4734 25.0896 21.4869 25.2988 21.5732C25.537 21.6716 25.7302 21.9124 26.1167 22.3955L28.9822 25.9774M28.9822 25.9774L29 25.9996M23 18C22.4477 18 22 17.5523 22 17C22 16.4477 22.4477 16 23 16C23.5523 16 24 16.4477 24 17C24 17.5523 23.5523 18 23 18Z" stroke="#020202" stroke-width="2" stroke-linecap="round" stroke-linejoin="round"/>
</svg>
