<svg width="34" height="34" viewBox="0 0 34 34" fill="none" xmlns="http://www.w3.org/2000/svg">
<path d="M5.68555 28.3166H28.3141M5.68555 28.3166V22.6594L16.9998 11.3451M5.68555 28.3166L11.3427 28.3165L22.657 17.0023M16.9998 11.3451L21.0569 7.28805L21.0593 7.28564C21.6178 6.72716 21.8975 6.44743 22.22 6.34266C22.5041 6.25036 22.8101 6.25036 23.0941 6.34266C23.4163 6.44736 23.6957 6.72677 24.2534 7.28446L26.714 9.74503C27.2741 10.3051 27.5543 10.5853 27.6592 10.9082C27.7515 11.1922 27.7514 11.4982 27.6591 11.7823C27.5543 12.105 27.2746 12.3847 26.7153 12.944L26.714 12.9452L22.657 17.0023M16.9998 11.3451L22.657 17.0023" stroke="#CDCDCD" stroke-width="2.18986" stroke-linecap="round" stroke-linejoin="round"/>
</svg>
