<svg width="119" height="96" viewBox="0 0 119 96" fill="none" xmlns="http://www.w3.org/2000/svg">
<path d="M66.9353 37.0478L67.2363 36.7676L66.9353 37.0478ZM55.5563 60.3662L23.0538 92.0281C21.0457 93.9843 18.3527 95.0791 15.5508 95.0791H0L48.0481 48.9197" fill="#FAFAFA"/>
<path d="M52.0599 58.0262L51.7589 58.3064L52.0599 58.0262ZM59.5525 56.7446L49.9584 42.0551L37.1992 22.566H48.9881C51.0688 22.566 53.1392 23.0278 54.9552 24.0396C56.5793 24.9477 57.8973 26.1826 58.9039 27.7496L63.4389 34.713L95.9414 3.05101C97.9495 1.09483 100.642 0 103.444 0H119L70.9523 46.1594" fill="#FAFAFA"/>
<path d="M74.9641 50.0095L89.9389 72.6689H78.15C76.0693 72.6689 73.999 72.2071 72.1829 71.1953C70.5588 70.2873 69.2408 69.0524 68.2342 67.4853L63.6992 60.522" fill="#FAFAFA"/>
</svg>
