<svg width="20" height="20" viewBox="0 0 20 20" fill="none" xmlns="http://www.w3.org/2000/svg">
<path d="M5 5.99886V13.9032C5 15.0374 5 15.6044 5.1701 15.9514C5.48537 16.5947 6.17631 16.9643 6.88639 16.8699C7.2695 16.8189 7.74136 16.5043 8.68508 15.8752L8.68735 15.8737C9.0614 15.6243 9.24846 15.4996 9.44413 15.4304C9.80351 15.3034 10.1956 15.3034 10.555 15.4304C10.7511 15.4997 10.9389 15.6249 11.3144 15.8753C12.2582 16.5044 12.7305 16.8188 13.1137 16.8697C13.8237 16.9642 14.5146 16.5947 14.8299 15.9514C15 15.6044 15 15.0372 15 13.9032V5.99612C15 5.06453 15 4.59803 14.8185 4.24186C14.6587 3.92826 14.4031 3.67348 14.0895 3.51369C13.733 3.33203 13.2669 3.33203 12.3335 3.33203H7.66683C6.73341 3.33203 6.26635 3.33203 5.90983 3.51369C5.59623 3.67348 5.34144 3.92826 5.18166 4.24186C5 4.59838 5 5.06544 5 5.99886Z" fill="#FF6D01" stroke="#FF6D01" stroke-width="1.66667" stroke-linecap="round" stroke-linejoin="round"/>
</svg>
