<svg width="24" height="25" viewBox="0 0 24 25" fill="none" xmlns="http://www.w3.org/2000/svg">
<path d="M5 20.4846V7.18457C5 6.06447 5 5.504 5.21799 5.07617C5.40973 4.69985 5.71547 4.39411 6.0918 4.20236C6.51962 3.98438 7.08009 3.98438 8.2002 3.98438H17.4002C17.9602 3.98438 18.2407 3.98438 18.4546 4.09337C18.6427 4.18924 18.7948 4.34211 18.8906 4.53027C18.9996 4.74419 19 5.02442 19 5.58447V17.3845C19 17.9445 18.9996 18.2242 18.8906 18.4381C18.7948 18.6262 18.6429 18.7796 18.4548 18.8755C18.2411 18.9844 17.961 18.9844 17.402 18.9844H7.25C6.00736 18.9844 5 19.9917 5 21.2344C5 21.6486 5.33579 21.9844 5.75 21.9844H16.402C16.961 21.9844 17.2411 21.9844 17.4548 21.8755C17.6429 21.7796 17.7948 21.6263 17.8906 21.4382C17.9996 21.2243 18 20.9444 18 20.3844V18.9844" stroke="#999999" stroke-width="2" stroke-linecap="round" stroke-linejoin="round"/>
</svg>
