<svg width="12" height="16" viewBox="0 0 12 16" fill="none" xmlns="http://www.w3.org/2000/svg">
<path d="M1 3.99886V11.9032C1 13.0374 1 13.6044 1.1701 13.9514C1.48537 14.5947 2.17631 14.9643 2.88639 14.8699C3.2695 14.8189 3.74136 14.5043 4.68508 13.8752L4.68735 13.8737C5.0614 13.6243 5.24846 13.4996 5.44413 13.4304C5.80351 13.3034 6.19563 13.3034 6.55501 13.4304C6.75108 13.4997 6.93886 13.6249 7.31443 13.8753C8.25815 14.5044 8.73054 14.8188 9.11365 14.8697C9.82373 14.9642 10.5146 14.5947 10.8299 13.9514C11 13.6044 11 13.0372 11 11.9032V3.99612C11 3.06453 11 2.59803 10.8185 2.24186C10.6587 1.92826 10.4031 1.67348 10.0895 1.51369C9.73298 1.33203 9.26692 1.33203 8.3335 1.33203H3.66683C2.73341 1.33203 2.26635 1.33203 1.90983 1.51369C1.59623 1.67348 1.34144 1.92826 1.18166 2.24186C1 2.59838 1 3.06544 1 3.99886Z" fill="#D9D9D9" stroke="#D9D9D9" stroke-width="1.66667" stroke-linecap="round" stroke-linejoin="round"/>
</svg>
