<svg viewBox="0 0 24 25" fill="none" xmlns="http://www.w3.org/2000/svg">
<path d="M6 8.15234V17.6375C6 18.9986 6 19.679 6.20412 20.0954C6.58245 20.8673 7.41157 21.3109 8.26367 21.1975C8.7234 21.1364 9.28964 20.7589 10.4221 20.0039L10.4248 20.0021C10.8737 19.7028 11.0981 19.5532 11.333 19.4702C11.7642 19.3178 12.2348 19.3178 12.666 19.4702C12.9013 19.5534 13.1266 19.7036 13.5773 20.0041C14.7098 20.759 15.2767 21.1362 15.7364 21.1974C16.5885 21.3108 17.4176 20.8673 17.7959 20.0954C18 19.679 18 18.9983 18 17.6375V8.14906C18 7.03114 18 6.47135 17.7822 6.04395C17.5905 5.66762 17.2837 5.36188 16.9074 5.17014C16.4796 4.95215 15.9203 4.95215 14.8002 4.95215H9.2002C8.08009 4.95215 7.51962 4.95215 7.0918 5.17014C6.71547 5.36188 6.40973 5.66762 6.21799 6.04395C6 6.47177 6 7.03224 6 8.15234Z" stroke="current" stroke-width="2" stroke-linecap="round" stroke-linejoin="round"/>
</svg>
