<svg width="23" height="19" viewBox="0 0 23 19" fill="none" xmlns="http://www.w3.org/2000/svg">
<path d="M1.5 18H3.5M3.5 18H13.5M3.5 18V4.2002C3.5 3.08009 3.5 2.51962 3.71799 2.0918C3.90973 1.71547 4.21547 1.40973 4.5918 1.21799C5.01962 1 5.58009 1 6.7002 1H10.3002C11.4203 1 11.9796 1 12.4074 1.21799C12.7837 1.40973 13.0905 1.71547 13.2822 2.0918C13.5 2.5192 13.5 3.07899 13.5 4.19691V10M13.5 18H19.5M13.5 18V10M19.5 18H21.5M19.5 18V10C19.5 9.06812 19.4999 8.60241 19.3477 8.23486C19.1447 7.74481 18.7557 7.35523 18.2656 7.15224C17.8981 7 17.4316 7 16.4997 7C15.5679 7 15.1019 7 14.7344 7.15224C14.2443 7.35523 13.8552 7.74481 13.6522 8.23486C13.5 8.60241 13.5 9.06812 13.5 10M6.5 8H10.5M6.5 5H10.5" stroke="current" stroke-width="2" stroke-linecap="round" stroke-linejoin="round"/>
</svg>
