<svg width="24" height="25" viewBox="0 0 24 25" fill="none" xmlns="http://www.w3.org/2000/svg">
<path d="M9 9.96289V7.16309C9 6.04298 9 5.48251 9.21799 5.05469C9.40973 4.67836 9.71547 4.37262 10.0918 4.18088C10.5196 3.96289 11.0801 3.96289 12.2002 3.96289H17.8002C18.9203 3.96289 19.4801 3.96289 19.9079 4.18088C20.2842 4.37262 20.5905 4.67836 20.7822 5.05469C21.0002 5.48251 21.0002 6.04256 21.0002 7.16267V12.7627C21.0002 13.8828 21.0002 14.4429 20.7822 14.8707C20.5905 15.247 20.2839 15.5534 19.9076 15.7451C19.4802 15.9629 18.921 15.9629 17.8031 15.9629H15M9 9.96289H6.2002C5.08009 9.96289 4.51962 9.96289 4.0918 10.1809C3.71547 10.3726 3.40973 10.6784 3.21799 11.0547C3 11.4825 3 12.043 3 13.1631V18.7631C3 19.8832 3 20.443 3.21799 20.8708C3.40973 21.2471 3.71547 21.5534 4.0918 21.7451C4.5192 21.9629 5.07899 21.9629 6.19691 21.9629H11.8036C12.9215 21.9629 13.4805 21.9629 13.9079 21.7451C14.2842 21.5534 14.5905 21.2468 14.7822 20.8705C15 20.4431 15 19.8839 15 18.766V15.9629M9 9.96289H11.8002C12.9203 9.96289 13.4801 9.96289 13.9079 10.1809C14.2842 10.3726 14.5905 10.6784 14.7822 11.0547C15 11.4821 15 12.0419 15 13.1598L15 15.9629" stroke="#999999" stroke-width="2" stroke-linecap="round" stroke-linejoin="round"/>
</svg>
