<svg width="24" height="25" viewBox="0 0 24 25" fill="none" xmlns="http://www.w3.org/2000/svg">
<path d="M9 17.9736H15M9 14.9736H15M13.0004 3.9745C12.9048 3.97363 12.7974 3.97363 12.6747 3.97363H8.2002C7.08009 3.97363 6.51962 3.97363 6.0918 4.19162C5.71547 4.38337 5.40973 4.68911 5.21799 5.06543C5 5.49325 5 6.05372 5 7.17383V18.7738C5 19.8939 5 20.4537 5.21799 20.8815C5.40973 21.2578 5.71547 21.5641 6.0918 21.7559C6.51921 21.9736 7.079 21.9736 8.19694 21.9736L15.8031 21.9736C16.921 21.9736 17.48 21.9736 17.9074 21.7559C18.2837 21.5641 18.5905 21.2578 18.7822 20.8815C19 20.4541 19 19.8951 19 18.7772V10.2993C19 10.1767 18.9999 10.0692 18.999 9.97363M13.0004 3.9745C13.2858 3.97711 13.4657 3.9877 13.6382 4.0291C13.8423 4.0781 14.0379 4.1589 14.2168 4.26855C14.4186 4.3922 14.5918 4.56545 14.9375 4.91113L18.063 8.03662C18.4089 8.38252 18.5809 8.55499 18.7046 8.75683C18.8142 8.93577 18.8953 9.13089 18.9443 9.33496C18.9857 9.50742 18.9964 9.68818 18.999 9.97363M13.0004 3.9745L13 6.77384C13 7.89395 13 8.45378 13.218 8.88161C13.4097 9.25793 13.7155 9.56411 14.0918 9.75586C14.5192 9.97363 15.079 9.97363 16.1969 9.97363H18.999" stroke="#999999" stroke-width="2" stroke-linecap="round" stroke-linejoin="round"/>
</svg>
