<svg width="40" height="41" viewBox="0 0 40 41" fill="none" xmlns="http://www.w3.org/2000/svg">
<g id="Warning / Triangle_Warning">
<path id="Vector" d="M20 15.4999V22.1666M7.29818 25.8329C5.78245 28.4582 5.02481 29.7714 5.13802 30.8485C5.23677 31.788 5.72987 32.6416 6.49414 33.1969C7.37006 33.8333 8.88484 33.8333 11.9142 33.8333H28.0858C31.1152 33.8333 32.6297 33.8333 33.5056 33.1969C34.2699 32.6416 34.7632 31.788 34.862 30.8485C34.9752 29.7714 34.2178 28.4582 32.702 25.8329L24.6191 11.8329C23.1034 9.20764 22.3452 7.89521 21.3558 7.45469C20.4928 7.07044 19.5067 7.07044 18.6437 7.45469C17.6546 7.89502 16.8969 9.20746 15.3824 11.8306L7.29818 25.8329ZM20.0846 27.1666V27.3333L19.917 27.3336V27.1666H20.0846Z" stroke="#FF6D01" stroke-width="3.33333" stroke-linecap="round" stroke-linejoin="round"/>
</g>
</svg>
