<svg width="24" height="25" viewBox="0 0 24 25" fill="none" xmlns="http://www.w3.org/2000/svg">
<path d="M17.2166 20.2737C15.9349 18.8422 14.0727 17.9414 12 17.9414C9.92734 17.9414 8.06492 18.8422 6.7832 20.2737M12 21.9414C7.02944 21.9414 3 17.912 3 12.9414C3 7.97084 7.02944 3.94141 12 3.94141C16.9706 3.94141 21 7.97084 21 12.9414C21 17.912 16.9706 21.9414 12 21.9414ZM12 14.9414C10.3431 14.9414 9 13.5983 9 11.9414C9 10.2846 10.3431 8.94141 12 8.94141C13.6569 8.94141 15 10.2846 15 11.9414C15 13.5983 13.6569 14.9414 12 14.9414Z" stroke="#999999" stroke-width="2" stroke-linecap="round" stroke-linejoin="round"/>
</svg>
