<svg width="21" height="14" viewBox="0 0 21 14" fill="none" xmlns="http://www.w3.org/2000/svg">
<path d="M4.5 13C4.56366 13 4.62926 13 4.69691 13H10.5M4.5 13C3.51173 12.9992 2.99334 12.9868 2.5918 12.7822C2.21547 12.5905 1.90973 12.2837 1.71799 11.9074C1.5 11.4796 1.5 10.9203 1.5 9.8002V4.2002C1.5 3.08009 1.5 2.51962 1.71799 2.0918C1.90973 1.71547 2.21547 1.40973 2.5918 1.21799C3.01962 1 3.58009 1 4.7002 1H16.3002C17.4203 1 17.9796 1 18.4074 1.21799C18.7837 1.40973 19.0905 1.71547 19.2822 2.0918C19.5 2.5192 19.5 3.07899 19.5 4.19691V9.80309C19.5 10.921 19.5 11.48 19.2822 11.9074C19.0905 12.2837 18.7837 12.5905 18.4074 12.7822C17.98 13 17.421 13 16.3031 13H10.5M4.5 13C4.50004 11.8954 5.84317 11 7.5 11C9.15685 11 10.5 11.8954 10.5 13M4.5 13C4.5 13 4.5 12.9999 4.5 13ZM16.5 9H12.5M16.5 6H13.5M7.5 8C6.39543 8 5.5 7.10457 5.5 6C5.5 4.89543 6.39543 4 7.5 4C8.60457 4 9.5 4.89543 9.5 6C9.5 7.10457 8.60457 8 7.5 8Z" stroke="current" stroke-width="2" stroke-linecap="round" stroke-linejoin="round"/>
</svg>
