<svg width="18" height="18" viewBox="0 0 18 18" fill="none" xmlns="http://www.w3.org/2000/svg">
<path d="M15.2656 1.64785C14.898 1.49561 14.432 1.49561 13.5002 1.49561C12.5685 1.49561 12.1024 1.49561 11.7349 1.64783C11.2448 1.85082 10.8554 2.24021 10.6524 2.73026C10.5002 3.09781 10.5002 3.56375 10.5002 4.49563C10.5002 5.42699 10.5002 5.89353 10.6524 6.26096C10.8554 6.75102 11.2448 7.14041 11.7348 7.3434C12.1024 7.49564 12.5683 7.49564 13.5002 7.49564C14.4321 7.49564 14.8973 7.49495 15.2649 7.34271C15.7549 7.13972 16.1443 6.75033 16.3473 6.26027C16.4996 5.89273 16.5002 5.42752 16.5002 4.49563C16.5002 3.56376 16.5002 3.09781 16.348 2.73027C16.145 2.24021 15.7556 1.85084 15.2656 1.64785Z" stroke="current" stroke-width="2" stroke-linecap="round" stroke-linejoin="round"/>
<path d="M6.26548 1.64751C5.89794 1.49526 5.43199 1.49526 4.50012 1.49526C3.5685 1.49527 3.1023 1.49527 2.73481 1.64749C2.24475 1.85047 1.85536 2.23986 1.65237 2.72992C1.50013 3.09746 1.50013 3.56341 1.50013 4.49529C1.50013 5.42664 1.50013 5.89318 1.65233 6.26062C1.85532 6.75068 2.24471 7.14006 2.73477 7.34305C3.10231 7.49529 3.56825 7.49529 4.50013 7.49529C5.43202 7.49529 5.89727 7.4946 6.26482 7.34236C6.75487 7.13937 7.14426 6.74998 7.34725 6.25993C7.49949 5.89239 7.50014 5.42717 7.50014 4.49529C7.50014 3.56341 7.50014 3.09746 7.3479 2.72992C7.14491 2.23986 6.75554 1.85049 6.26548 1.64751Z" stroke="current" stroke-width="2" stroke-linecap="round" stroke-linejoin="round"/>
<path d="M13.5005 10.4957C12.5689 10.4957 12.1027 10.4957 11.7352 10.6479C11.2452 10.8509 10.8558 11.2403 10.6528 11.7303C10.5006 12.0979 10.5006 12.5638 10.5006 13.4957C10.5006 14.427 10.5006 14.8936 10.6527 15.261C10.8557 15.7511 11.2451 16.1405 11.7352 16.3435C12.1027 16.4957 12.5687 16.4957 13.5006 16.4957C14.4324 16.4957 14.8977 16.495 15.2652 16.3428C15.7553 16.1398 16.1447 15.7504 16.3477 15.2603C16.4999 14.8928 16.5006 14.4276 16.5006 13.4957C16.5006 12.5638 16.5006 12.0979 16.3483 11.7303C16.1453 11.2403 15.756 10.8509 15.2659 10.6479C14.8984 10.4957 14.4324 10.4957 13.5005 10.4957Z" stroke="current" stroke-width="2" stroke-linecap="round" stroke-linejoin="round"/>
<path d="M6.26548 10.6479C5.89794 10.4957 5.43199 10.4957 4.50012 10.4957C3.56849 10.4957 3.1023 10.4957 2.73481 10.6479C2.24475 10.8509 1.85536 11.2403 1.65237 11.7303C1.50013 12.0979 1.50013 12.5638 1.50013 13.4957C1.50013 14.4271 1.50013 14.8936 1.65233 15.261C1.85532 15.7511 2.24471 16.1405 2.73477 16.3435C3.10231 16.4957 3.56825 16.4957 4.50013 16.4957C5.43202 16.4957 5.89727 16.495 6.26482 16.3428C6.75487 16.1398 7.14426 15.7504 7.34725 15.2603C7.49949 14.8928 7.50014 14.4276 7.50014 13.4957C7.50014 12.5638 7.50014 12.0979 7.3479 11.7303C7.14491 11.2403 6.75554 10.8509 6.26548 10.6479Z" stroke="current" stroke-width="2" stroke-linecap="round" stroke-linejoin="round"/>
</svg>
